<svg width="150" height="44" viewBox="0 0 150 44" fill="none" xmlns="http://www.w3.org/2000/svg">
<rect width="150" height="44" rx="22" fill="#F22539"/>
<path d="M88.6199 24.086L87.0359 19.757C86.9579 19.565 86.8769 19.337 86.7929 19.073C86.7089 18.809 86.6249 18.524 86.5409 18.218C86.4629 18.524 86.3819 18.812 86.2979 19.082C86.2139 19.346 86.1329 19.577 86.0549 19.775L84.4799 24.086H88.6199ZM92.8949 29H91.0229C90.8129 29 90.6419 28.949 90.5099 28.847C90.3779 28.739 90.2789 28.607 90.2129 28.451L89.2409 25.796H83.8499L82.8779 28.451C82.8299 28.589 82.7369 28.715 82.5989 28.829C82.4609 28.943 82.2899 29 82.0859 29H80.1959L85.3169 15.986H87.7829L92.8949 29ZM96.1234 15.626V29H93.9004V15.626H96.1234ZM100.588 15.626V29H98.3652V15.626H100.588Z" fill="white"/>
<path d="M51.4375 27.9231H48.6875C48.5052 27.9231 48.3303 28.0122 48.2014 28.1709C48.0724 28.3296 48 28.5448 48 28.7692V32.1538C48 32.3783 48.0724 32.5935 48.2014 32.7522C48.3303 32.9109 48.5052 33 48.6875 33H51.4375C51.6198 33 51.7947 32.9109 51.9236 32.7522C52.0526 32.5935 52.125 32.3783 52.125 32.1538V28.7692C52.125 28.5448 52.0526 28.3296 51.9236 28.1709C51.7947 28.0122 51.6198 27.9231 51.4375 27.9231ZM51.4375 11H48.6875C48.5052 11 48.3303 11.0891 48.2014 11.2478C48.0724 11.4065 48 11.6217 48 11.8462V15.2308C48 15.4552 48.0724 15.6704 48.2014 15.8291C48.3303 15.9878 48.5052 16.0769 48.6875 16.0769H51.4375C51.6198 16.0769 51.7947 15.9878 51.9236 15.8291C52.0526 15.6704 52.125 15.4552 52.125 15.2308V11.8462C52.125 11.6217 52.0526 11.4065 51.9236 11.2478C51.7947 11.0891 51.6198 11 51.4375 11ZM51.4375 19.4615H48.6875C48.5052 19.4615 48.3303 19.5507 48.2014 19.7094C48.0724 19.8681 48 20.0833 48 20.3077V23.6923C48 23.9167 48.0724 24.1319 48.2014 24.2906C48.3303 24.4493 48.5052 24.5385 48.6875 24.5385H51.4375C51.6198 24.5385 51.7947 24.4493 51.9236 24.2906C52.0526 24.1319 52.125 23.9167 52.125 23.6923V20.3077C52.125 20.0833 52.0526 19.8681 51.9236 19.7094C51.7947 19.5507 51.6198 19.4615 51.4375 19.4615ZM69.3125 28.7692H55.5625C55.3802 28.7692 55.2053 28.8584 55.0764 29.0171C54.9474 29.1757 54.875 29.391 54.875 29.6154V31.3077C54.875 31.5321 54.9474 31.7473 55.0764 31.906C55.2053 32.0647 55.3802 32.1538 55.5625 32.1538H69.3125C69.4948 32.1538 69.6697 32.0647 69.7986 31.906C69.9276 31.7473 70 31.5321 70 31.3077V29.6154C70 29.391 69.9276 29.1757 69.7986 29.0171C69.6697 28.8584 69.4948 28.7692 69.3125 28.7692ZM69.3125 11.8462H55.5625C55.3802 11.8462 55.2053 11.9353 55.0764 12.094C54.9474 12.2527 54.875 12.4679 54.875 12.6923V14.3846C54.875 14.609 54.9474 14.8243 55.0764 14.9829C55.2053 15.1416 55.3802 15.2308 55.5625 15.2308H69.3125C69.4948 15.2308 69.6697 15.1416 69.7986 14.9829C69.9276 14.8243 70 14.609 70 14.3846V12.6923C70 12.4679 69.9276 12.2527 69.7986 12.094C69.6697 11.9353 69.4948 11.8462 69.3125 11.8462ZM69.3125 20.3077H55.5625C55.3802 20.3077 55.2053 20.3968 55.0764 20.5555C54.9474 20.7142 54.875 20.9294 54.875 21.1538V22.8462C54.875 23.0706 54.9474 23.2858 55.0764 23.4445C55.2053 23.6032 55.3802 23.6923 55.5625 23.6923H69.3125C69.4948 23.6923 69.6697 23.6032 69.7986 23.4445C69.9276 23.2858 70 23.0706 70 22.8462V21.1538C70 20.9294 69.9276 20.7142 69.7986 20.5555C69.6697 20.3968 69.4948 20.3077 69.3125 20.3077Z" fill="white"/>
</svg>
