<svg width="150" height="44" viewBox="0 0 150 44" fill="none" xmlns="http://www.w3.org/2000/svg">
<rect width="150" height="44" rx="22" fill="#F22539"/>
<path d="M58.922 17.912V21.764H63.8V23.699H58.922V29H56.492V15.986H64.7V17.912H58.922ZM70.0014 25.058C69.3594 25.088 68.8194 25.145 68.3814 25.229C67.9434 25.307 67.5924 25.409 67.3284 25.535C67.0644 25.661 66.8754 25.808 66.7614 25.976C66.6474 26.144 66.5904 26.327 66.5904 26.525C66.5904 26.915 66.7044 27.194 66.9324 27.362C67.1664 27.53 67.4694 27.614 67.8414 27.614C68.2974 27.614 68.6904 27.533 69.0204 27.371C69.3564 27.203 69.6834 26.951 70.0014 26.615V25.058ZM64.9074 21.053C65.9694 20.081 67.2474 19.595 68.7414 19.595C69.2814 19.595 69.7644 19.685 70.1904 19.865C70.6164 20.039 70.9764 20.285 71.2704 20.603C71.5644 20.915 71.7864 21.29 71.9364 21.728C72.0924 22.166 72.1704 22.646 72.1704 23.168V29H71.1624C70.9524 29 70.7904 28.97 70.6764 28.91C70.5624 28.844 70.4724 28.715 70.4064 28.523L70.2084 27.857C69.9744 28.067 69.7464 28.253 69.5244 28.415C69.3024 28.571 69.0714 28.703 68.8314 28.811C68.5914 28.919 68.3334 29 68.0574 29.054C67.7874 29.114 67.4874 29.144 67.1574 29.144C66.7674 29.144 66.4074 29.093 66.0774 28.991C65.7474 28.883 65.4624 28.724 65.2224 28.514C64.9824 28.304 64.7964 28.043 64.6644 27.731C64.5324 27.419 64.4664 27.056 64.4664 26.642C64.4664 26.408 64.5054 26.177 64.5834 25.949C64.6614 25.715 64.7874 25.493 64.9614 25.283C65.1414 25.073 65.3724 24.875 65.6544 24.689C65.9364 24.503 66.2814 24.341 66.6894 24.203C67.1034 24.065 67.5834 23.954 68.1294 23.87C68.6754 23.78 69.2994 23.726 70.0014 23.708V23.168C70.0014 22.55 69.8694 22.094 69.6054 21.8C69.3414 21.5 68.9604 21.35 68.4624 21.35C68.1024 21.35 67.8024 21.392 67.5624 21.476C67.3284 21.56 67.1214 21.656 66.9414 21.764C66.7614 21.866 66.5964 21.959 66.4464 22.043C66.3024 22.127 66.1404 22.169 65.9604 22.169C65.8044 22.169 65.6724 22.13 65.5644 22.052C65.4564 21.968 65.3694 21.872 65.3034 21.764L64.9074 21.053ZM82.3781 19.766L78.7151 29H76.6991L73.0361 19.766H74.8721C75.0401 19.766 75.1781 19.805 75.2861 19.883C75.4001 19.961 75.4751 20.06 75.5111 20.18L77.2931 25.112C77.3891 25.4 77.4731 25.682 77.5451 25.958C77.6171 26.234 77.6801 26.51 77.7341 26.786C77.7941 26.51 77.8601 26.234 77.9321 25.958C78.0041 25.682 78.0911 25.4 78.1931 25.112L80.0111 20.18C80.0531 20.06 80.1281 19.961 80.2361 19.883C80.3441 19.805 80.4731 19.766 80.6231 19.766H82.3781ZM87.3676 19.622C88.0516 19.622 88.6726 19.733 89.2306 19.955C89.7946 20.177 90.2746 20.492 90.6706 20.9C91.0726 21.308 91.3816 21.806 91.5976 22.394C91.8136 22.982 91.9216 23.639 91.9216 24.365C91.9216 25.097 91.8136 25.757 91.5976 26.345C91.3816 26.933 91.0726 27.434 90.6706 27.848C90.2746 28.262 89.7946 28.58 89.2306 28.802C88.6726 29.024 88.0516 29.135 87.3676 29.135C86.6776 29.135 86.0506 29.024 85.4866 28.802C84.9226 28.58 84.4396 28.262 84.0376 27.848C83.6416 27.434 83.3326 26.933 83.1106 26.345C82.8946 25.757 82.7866 25.097 82.7866 24.365C82.7866 23.639 82.8946 22.982 83.1106 22.394C83.3326 21.806 83.6416 21.308 84.0376 20.9C84.4396 20.492 84.9226 20.177 85.4866 19.955C86.0506 19.733 86.6776 19.622 87.3676 19.622ZM87.3676 27.425C88.1356 27.425 88.7026 27.167 89.0686 26.651C89.4406 26.135 89.6266 25.379 89.6266 24.383C89.6266 23.387 89.4406 22.628 89.0686 22.106C88.7026 21.584 88.1356 21.323 87.3676 21.323C86.5876 21.323 86.0086 21.587 85.6306 22.115C85.2586 22.637 85.0726 23.393 85.0726 24.383C85.0726 25.373 85.2586 26.129 85.6306 26.651C86.0086 27.167 86.5876 27.425 87.3676 27.425ZM95.7145 21.368C96.0025 20.816 96.3445 20.384 96.7405 20.072C97.1365 19.754 97.6045 19.595 98.1445 19.595C98.5705 19.595 98.9125 19.688 99.1705 19.874L99.0265 21.539C98.9965 21.647 98.9515 21.725 98.8915 21.773C98.8375 21.815 98.7625 21.836 98.6665 21.836C98.5765 21.836 98.4415 21.821 98.2615 21.791C98.0875 21.761 97.9165 21.746 97.7485 21.746C97.5025 21.746 97.2835 21.782 97.0915 21.854C96.8995 21.926 96.7255 22.031 96.5695 22.169C96.4195 22.301 96.2845 22.463 96.1645 22.655C96.0505 22.847 95.9425 23.066 95.8405 23.312V29H93.6175V19.766H94.9225C95.1505 19.766 95.3095 19.808 95.3995 19.892C95.4895 19.97 95.5495 20.114 95.5795 20.324L95.7145 21.368ZM102.636 19.766V29H100.404V19.766H102.636ZM102.942 17.075C102.942 17.267 102.903 17.447 102.825 17.615C102.747 17.783 102.642 17.93 102.51 18.056C102.384 18.182 102.234 18.284 102.06 18.362C101.886 18.434 101.7 18.47 101.502 18.47C101.31 18.47 101.127 18.434 100.953 18.362C100.785 18.284 100.638 18.182 100.512 18.056C100.386 17.93 100.284 17.783 100.206 17.615C100.134 17.447 100.098 17.267 100.098 17.075C100.098 16.877 100.134 16.691 100.206 16.517C100.284 16.343 100.386 16.193 100.512 16.067C100.638 15.941 100.785 15.842 100.953 15.77C101.127 15.692 101.31 15.653 101.502 15.653C101.7 15.653 101.886 15.692 102.06 15.77C102.234 15.842 102.384 15.941 102.51 16.067C102.642 16.193 102.747 16.343 102.825 16.517C102.903 16.691 102.942 16.877 102.942 17.075ZM107.981 29.144C107.177 29.144 106.559 28.919 106.127 28.469C105.701 28.013 105.488 27.386 105.488 26.588V21.431H104.543C104.423 21.431 104.321 21.392 104.237 21.314C104.153 21.236 104.111 21.119 104.111 20.963V20.081L105.596 19.838L106.064 17.318C106.094 17.198 106.151 17.105 106.235 17.039C106.319 16.973 106.427 16.94 106.559 16.94H107.711V19.847H110.177V21.431H107.711V26.435C107.711 26.723 107.78 26.948 107.918 27.11C108.062 27.272 108.257 27.353 108.503 27.353C108.641 27.353 108.755 27.338 108.845 27.308C108.941 27.272 109.022 27.236 109.088 27.2C109.16 27.164 109.223 27.131 109.277 27.101C109.331 27.065 109.385 27.047 109.439 27.047C109.505 27.047 109.559 27.065 109.601 27.101C109.643 27.131 109.688 27.179 109.736 27.245L110.402 28.325C110.078 28.595 109.706 28.799 109.286 28.937C108.866 29.075 108.431 29.144 107.981 29.144ZM117.479 23.321C117.479 23.033 117.437 22.763 117.353 22.511C117.275 22.253 117.155 22.028 116.993 21.836C116.831 21.644 116.624 21.494 116.372 21.386C116.126 21.272 115.838 21.215 115.508 21.215C114.866 21.215 114.359 21.398 113.987 21.764C113.621 22.13 113.387 22.649 113.285 23.321H117.479ZM113.24 24.662C113.276 25.136 113.36 25.547 113.492 25.895C113.624 26.237 113.798 26.522 114.014 26.75C114.23 26.972 114.485 27.14 114.779 27.254C115.079 27.362 115.409 27.416 115.769 27.416C116.129 27.416 116.438 27.374 116.696 27.29C116.96 27.206 117.188 27.113 117.38 27.011C117.578 26.909 117.749 26.816 117.893 26.732C118.043 26.648 118.187 26.606 118.325 26.606C118.511 26.606 118.649 26.675 118.739 26.813L119.378 27.623C119.132 27.911 118.856 28.154 118.55 28.352C118.244 28.544 117.923 28.7 117.587 28.82C117.257 28.934 116.918 29.015 116.57 29.063C116.228 29.111 115.895 29.135 115.571 29.135C114.929 29.135 114.332 29.03 113.78 28.82C113.228 28.604 112.748 28.289 112.34 27.875C111.932 27.455 111.611 26.939 111.377 26.327C111.143 25.709 111.026 24.995 111.026 24.185C111.026 23.555 111.128 22.964 111.332 22.412C111.536 21.854 111.827 21.371 112.205 20.963C112.589 20.549 113.054 20.222 113.6 19.982C114.152 19.742 114.773 19.622 115.463 19.622C116.045 19.622 116.582 19.715 117.074 19.901C117.566 20.087 117.989 20.36 118.343 20.72C118.697 21.074 118.973 21.512 119.171 22.034C119.375 22.55 119.477 23.141 119.477 23.807C119.477 24.143 119.441 24.371 119.369 24.491C119.297 24.605 119.159 24.662 118.955 24.662H113.24ZM126.779 21.566C126.719 21.662 126.656 21.731 126.59 21.773C126.524 21.809 126.44 21.827 126.338 21.827C126.23 21.827 126.113 21.797 125.987 21.737C125.867 21.677 125.726 21.611 125.564 21.539C125.402 21.461 125.216 21.392 125.006 21.332C124.802 21.272 124.559 21.242 124.277 21.242C123.839 21.242 123.494 21.335 123.242 21.521C122.996 21.707 122.873 21.95 122.873 22.25C122.873 22.448 122.936 22.616 123.062 22.754C123.194 22.886 123.365 23.003 123.575 23.105C123.791 23.207 124.034 23.3 124.304 23.384C124.574 23.462 124.847 23.549 125.123 23.645C125.405 23.741 125.681 23.852 125.951 23.978C126.221 24.098 126.461 24.254 126.671 24.446C126.887 24.632 127.058 24.857 127.184 25.121C127.316 25.385 127.382 25.703 127.382 26.075C127.382 26.519 127.301 26.93 127.139 27.308C126.983 27.68 126.749 28.004 126.437 28.28C126.125 28.55 125.738 28.763 125.276 28.919C124.82 29.069 124.292 29.144 123.692 29.144C123.374 29.144 123.062 29.114 122.756 29.054C122.456 29 122.165 28.922 121.883 28.82C121.607 28.718 121.349 28.598 121.109 28.46C120.875 28.322 120.668 28.172 120.488 28.01L121.001 27.164C121.067 27.062 121.145 26.984 121.235 26.93C121.325 26.876 121.439 26.849 121.577 26.849C121.715 26.849 121.844 26.888 121.964 26.966C122.09 27.044 122.234 27.128 122.396 27.218C122.558 27.308 122.747 27.392 122.963 27.47C123.185 27.548 123.464 27.587 123.8 27.587C124.064 27.587 124.289 27.557 124.475 27.497C124.667 27.431 124.823 27.347 124.943 27.245C125.069 27.143 125.159 27.026 125.213 26.894C125.273 26.756 125.303 26.615 125.303 26.471C125.303 26.255 125.237 26.078 125.105 25.94C124.979 25.802 124.808 25.682 124.592 25.58C124.382 25.478 124.139 25.388 123.863 25.31C123.593 25.226 123.314 25.136 123.026 25.04C122.744 24.944 122.465 24.833 122.189 24.707C121.919 24.575 121.676 24.41 121.46 24.212C121.25 24.014 121.079 23.771 120.947 23.483C120.821 23.195 120.758 22.847 120.758 22.439C120.758 22.061 120.833 21.701 120.983 21.359C121.133 21.017 121.352 20.72 121.64 20.468C121.934 20.21 122.297 20.006 122.729 19.856C123.167 19.7 123.671 19.622 124.241 19.622C124.877 19.622 125.456 19.727 125.978 19.937C126.5 20.147 126.935 20.423 127.283 20.765L126.779 21.566Z" fill="white"/>
<path d="M31.8198 11.7653L29.1346 17.4537L23.1267 18.3688C22.0494 18.532 21.6176 19.9198 22.3989 20.7146L26.7454 25.1398L25.7174 31.391C25.5323 32.5209 26.6714 33.3673 27.6254 32.8389L33 29.8873L38.3746 32.8389C39.3286 33.363 40.4677 32.5209 40.2826 31.391L39.2546 25.1398L43.6011 20.7146C44.3824 19.9198 43.9506 18.532 42.8733 18.3688L36.8654 17.4537L34.1802 11.7653C33.6991 10.7514 32.305 10.7385 31.8198 11.7653Z" fill="white"/>
</svg>
