<svg width="275" height="44" viewBox="0 0 275 44" fill="none" xmlns="http://www.w3.org/2000/svg">
<rect width="275" height="44" rx="22" fill="#BFBFBF"/>
<path d="M151.62 24.086L150.036 19.757C149.958 19.565 149.877 19.337 149.793 19.073C149.709 18.809 149.625 18.524 149.541 18.218C149.463 18.524 149.382 18.812 149.298 19.082C149.214 19.346 149.133 19.577 149.055 19.775L147.48 24.086H151.62ZM155.895 29H154.023C153.813 29 153.642 28.949 153.51 28.847C153.378 28.739 153.279 28.607 153.213 28.451L152.241 25.796H146.85L145.878 28.451C145.83 28.589 145.737 28.715 145.599 28.829C145.461 28.943 145.29 29 145.086 29H143.196L148.317 15.986H150.783L155.895 29ZM159.123 15.626V29H156.9V15.626H159.123ZM163.588 15.626V29H161.365V15.626H163.588Z" fill="white"/>
<path d="M114.438 27.9231H111.688C111.505 27.9231 111.33 28.0122 111.201 28.1709C111.072 28.3296 111 28.5448 111 28.7692V32.1538C111 32.3783 111.072 32.5935 111.201 32.7522C111.33 32.9109 111.505 33 111.688 33H114.438C114.62 33 114.795 32.9109 114.924 32.7522C115.053 32.5935 115.125 32.3783 115.125 32.1538V28.7692C115.125 28.5448 115.053 28.3296 114.924 28.1709C114.795 28.0122 114.62 27.9231 114.438 27.9231ZM114.438 11H111.688C111.505 11 111.33 11.0891 111.201 11.2478C111.072 11.4065 111 11.6217 111 11.8462V15.2308C111 15.4552 111.072 15.6704 111.201 15.8291C111.33 15.9878 111.505 16.0769 111.688 16.0769H114.438C114.62 16.0769 114.795 15.9878 114.924 15.8291C115.053 15.6704 115.125 15.4552 115.125 15.2308V11.8462C115.125 11.6217 115.053 11.4065 114.924 11.2478C114.795 11.0891 114.62 11 114.438 11ZM114.438 19.4615H111.688C111.505 19.4615 111.33 19.5507 111.201 19.7094C111.072 19.8681 111 20.0833 111 20.3077V23.6923C111 23.9167 111.072 24.1319 111.201 24.2906C111.33 24.4493 111.505 24.5385 111.688 24.5385H114.438C114.62 24.5385 114.795 24.4493 114.924 24.2906C115.053 24.1319 115.125 23.9167 115.125 23.6923V20.3077C115.125 20.0833 115.053 19.8681 114.924 19.7094C114.795 19.5507 114.62 19.4615 114.438 19.4615ZM132.312 28.7692H118.562C118.38 28.7692 118.205 28.8584 118.076 29.0171C117.947 29.1757 117.875 29.391 117.875 29.6154V31.3077C117.875 31.5321 117.947 31.7473 118.076 31.906C118.205 32.0647 118.38 32.1538 118.562 32.1538H132.312C132.495 32.1538 132.67 32.0647 132.799 31.906C132.928 31.7473 133 31.5321 133 31.3077V29.6154C133 29.391 132.928 29.1757 132.799 29.0171C132.67 28.8584 132.495 28.7692 132.312 28.7692ZM132.312 11.8462H118.562C118.38 11.8462 118.205 11.9353 118.076 12.094C117.947 12.2527 117.875 12.4679 117.875 12.6923V14.3846C117.875 14.609 117.947 14.8243 118.076 14.9829C118.205 15.1416 118.38 15.2308 118.562 15.2308H132.312C132.495 15.2308 132.67 15.1416 132.799 14.9829C132.928 14.8243 133 14.609 133 14.3846V12.6923C133 12.4679 132.928 12.2527 132.799 12.094C132.67 11.9353 132.495 11.8462 132.312 11.8462ZM132.312 20.3077H118.562C118.38 20.3077 118.205 20.3968 118.076 20.5555C117.947 20.7142 117.875 20.9294 117.875 21.1538V22.8462C117.875 23.0706 117.947 23.2858 118.076 23.4445C118.205 23.6032 118.38 23.6923 118.562 23.6923H132.312C132.495 23.6923 132.67 23.6032 132.799 23.4445C132.928 23.2858 133 23.0706 133 22.8462V21.1538C133 20.9294 132.928 20.7142 132.799 20.5555C132.67 20.3968 132.495 20.3077 132.312 20.3077Z" fill="white"/>
</svg>
