<svg width="275" height="44" viewBox="0 0 275 44" fill="none" xmlns="http://www.w3.org/2000/svg">
<rect width="275" height="44" rx="22" fill="#F22539"/>
<path d="M121.922 17.912V21.764H126.8V23.699H121.922V29H119.492V15.986H127.7V17.912H121.922ZM133.001 25.058C132.359 25.088 131.819 25.145 131.381 25.229C130.943 25.307 130.592 25.409 130.328 25.535C130.064 25.661 129.875 25.808 129.761 25.976C129.647 26.144 129.59 26.327 129.59 26.525C129.59 26.915 129.704 27.194 129.932 27.362C130.166 27.53 130.469 27.614 130.841 27.614C131.297 27.614 131.69 27.533 132.02 27.371C132.356 27.203 132.683 26.951 133.001 26.615V25.058ZM127.907 21.053C128.969 20.081 130.247 19.595 131.741 19.595C132.281 19.595 132.764 19.685 133.19 19.865C133.616 20.039 133.976 20.285 134.27 20.603C134.564 20.915 134.786 21.29 134.936 21.728C135.092 22.166 135.17 22.646 135.17 23.168V29H134.162C133.952 29 133.79 28.97 133.676 28.91C133.562 28.844 133.472 28.715 133.406 28.523L133.208 27.857C132.974 28.067 132.746 28.253 132.524 28.415C132.302 28.571 132.071 28.703 131.831 28.811C131.591 28.919 131.333 29 131.057 29.054C130.787 29.114 130.487 29.144 130.157 29.144C129.767 29.144 129.407 29.093 129.077 28.991C128.747 28.883 128.462 28.724 128.222 28.514C127.982 28.304 127.796 28.043 127.664 27.731C127.532 27.419 127.466 27.056 127.466 26.642C127.466 26.408 127.505 26.177 127.583 25.949C127.661 25.715 127.787 25.493 127.961 25.283C128.141 25.073 128.372 24.875 128.654 24.689C128.936 24.503 129.281 24.341 129.689 24.203C130.103 24.065 130.583 23.954 131.129 23.87C131.675 23.78 132.299 23.726 133.001 23.708V23.168C133.001 22.55 132.869 22.094 132.605 21.8C132.341 21.5 131.96 21.35 131.462 21.35C131.102 21.35 130.802 21.392 130.562 21.476C130.328 21.56 130.121 21.656 129.941 21.764C129.761 21.866 129.596 21.959 129.446 22.043C129.302 22.127 129.14 22.169 128.96 22.169C128.804 22.169 128.672 22.13 128.564 22.052C128.456 21.968 128.369 21.872 128.303 21.764L127.907 21.053ZM145.378 19.766L141.715 29H139.699L136.036 19.766H137.872C138.04 19.766 138.178 19.805 138.286 19.883C138.4 19.961 138.475 20.06 138.511 20.18L140.293 25.112C140.389 25.4 140.473 25.682 140.545 25.958C140.617 26.234 140.68 26.51 140.734 26.786C140.794 26.51 140.86 26.234 140.932 25.958C141.004 25.682 141.091 25.4 141.193 25.112L143.011 20.18C143.053 20.06 143.128 19.961 143.236 19.883C143.344 19.805 143.473 19.766 143.623 19.766H145.378ZM150.368 19.622C151.052 19.622 151.673 19.733 152.231 19.955C152.795 20.177 153.275 20.492 153.671 20.9C154.073 21.308 154.382 21.806 154.598 22.394C154.814 22.982 154.922 23.639 154.922 24.365C154.922 25.097 154.814 25.757 154.598 26.345C154.382 26.933 154.073 27.434 153.671 27.848C153.275 28.262 152.795 28.58 152.231 28.802C151.673 29.024 151.052 29.135 150.368 29.135C149.678 29.135 149.051 29.024 148.487 28.802C147.923 28.58 147.44 28.262 147.038 27.848C146.642 27.434 146.333 26.933 146.111 26.345C145.895 25.757 145.787 25.097 145.787 24.365C145.787 23.639 145.895 22.982 146.111 22.394C146.333 21.806 146.642 21.308 147.038 20.9C147.44 20.492 147.923 20.177 148.487 19.955C149.051 19.733 149.678 19.622 150.368 19.622ZM150.368 27.425C151.136 27.425 151.703 27.167 152.069 26.651C152.441 26.135 152.627 25.379 152.627 24.383C152.627 23.387 152.441 22.628 152.069 22.106C151.703 21.584 151.136 21.323 150.368 21.323C149.588 21.323 149.009 21.587 148.631 22.115C148.259 22.637 148.073 23.393 148.073 24.383C148.073 25.373 148.259 26.129 148.631 26.651C149.009 27.167 149.588 27.425 150.368 27.425ZM158.715 21.368C159.003 20.816 159.345 20.384 159.741 20.072C160.137 19.754 160.605 19.595 161.145 19.595C161.571 19.595 161.913 19.688 162.171 19.874L162.027 21.539C161.997 21.647 161.952 21.725 161.892 21.773C161.838 21.815 161.763 21.836 161.667 21.836C161.577 21.836 161.442 21.821 161.262 21.791C161.088 21.761 160.917 21.746 160.749 21.746C160.503 21.746 160.284 21.782 160.092 21.854C159.9 21.926 159.726 22.031 159.57 22.169C159.42 22.301 159.285 22.463 159.165 22.655C159.051 22.847 158.943 23.066 158.841 23.312V29H156.618V19.766H157.923C158.151 19.766 158.31 19.808 158.4 19.892C158.49 19.97 158.55 20.114 158.58 20.324L158.715 21.368ZM165.636 19.766V29H163.404V19.766H165.636ZM165.942 17.075C165.942 17.267 165.903 17.447 165.825 17.615C165.747 17.783 165.642 17.93 165.51 18.056C165.384 18.182 165.234 18.284 165.06 18.362C164.886 18.434 164.7 18.47 164.502 18.47C164.31 18.47 164.127 18.434 163.953 18.362C163.785 18.284 163.638 18.182 163.512 18.056C163.386 17.93 163.284 17.783 163.206 17.615C163.134 17.447 163.098 17.267 163.098 17.075C163.098 16.877 163.134 16.691 163.206 16.517C163.284 16.343 163.386 16.193 163.512 16.067C163.638 15.941 163.785 15.842 163.953 15.77C164.127 15.692 164.31 15.653 164.502 15.653C164.7 15.653 164.886 15.692 165.06 15.77C165.234 15.842 165.384 15.941 165.51 16.067C165.642 16.193 165.747 16.343 165.825 16.517C165.903 16.691 165.942 16.877 165.942 17.075ZM170.981 29.144C170.177 29.144 169.559 28.919 169.127 28.469C168.701 28.013 168.488 27.386 168.488 26.588V21.431H167.543C167.423 21.431 167.321 21.392 167.237 21.314C167.153 21.236 167.111 21.119 167.111 20.963V20.081L168.596 19.838L169.064 17.318C169.094 17.198 169.151 17.105 169.235 17.039C169.319 16.973 169.427 16.94 169.559 16.94H170.711V19.847H173.177V21.431H170.711V26.435C170.711 26.723 170.78 26.948 170.918 27.11C171.062 27.272 171.257 27.353 171.503 27.353C171.641 27.353 171.755 27.338 171.845 27.308C171.941 27.272 172.022 27.236 172.088 27.2C172.16 27.164 172.223 27.131 172.277 27.101C172.331 27.065 172.385 27.047 172.439 27.047C172.505 27.047 172.559 27.065 172.601 27.101C172.643 27.131 172.688 27.179 172.736 27.245L173.402 28.325C173.078 28.595 172.706 28.799 172.286 28.937C171.866 29.075 171.431 29.144 170.981 29.144ZM180.479 23.321C180.479 23.033 180.437 22.763 180.353 22.511C180.275 22.253 180.155 22.028 179.993 21.836C179.831 21.644 179.624 21.494 179.372 21.386C179.126 21.272 178.838 21.215 178.508 21.215C177.866 21.215 177.359 21.398 176.987 21.764C176.621 22.13 176.387 22.649 176.285 23.321H180.479ZM176.24 24.662C176.276 25.136 176.36 25.547 176.492 25.895C176.624 26.237 176.798 26.522 177.014 26.75C177.23 26.972 177.485 27.14 177.779 27.254C178.079 27.362 178.409 27.416 178.769 27.416C179.129 27.416 179.438 27.374 179.696 27.29C179.96 27.206 180.188 27.113 180.38 27.011C180.578 26.909 180.749 26.816 180.893 26.732C181.043 26.648 181.187 26.606 181.325 26.606C181.511 26.606 181.649 26.675 181.739 26.813L182.378 27.623C182.132 27.911 181.856 28.154 181.55 28.352C181.244 28.544 180.923 28.7 180.587 28.82C180.257 28.934 179.918 29.015 179.57 29.063C179.228 29.111 178.895 29.135 178.571 29.135C177.929 29.135 177.332 29.03 176.78 28.82C176.228 28.604 175.748 28.289 175.34 27.875C174.932 27.455 174.611 26.939 174.377 26.327C174.143 25.709 174.026 24.995 174.026 24.185C174.026 23.555 174.128 22.964 174.332 22.412C174.536 21.854 174.827 21.371 175.205 20.963C175.589 20.549 176.054 20.222 176.6 19.982C177.152 19.742 177.773 19.622 178.463 19.622C179.045 19.622 179.582 19.715 180.074 19.901C180.566 20.087 180.989 20.36 181.343 20.72C181.697 21.074 181.973 21.512 182.171 22.034C182.375 22.55 182.477 23.141 182.477 23.807C182.477 24.143 182.441 24.371 182.369 24.491C182.297 24.605 182.159 24.662 181.955 24.662H176.24ZM189.779 21.566C189.719 21.662 189.656 21.731 189.59 21.773C189.524 21.809 189.44 21.827 189.338 21.827C189.23 21.827 189.113 21.797 188.987 21.737C188.867 21.677 188.726 21.611 188.564 21.539C188.402 21.461 188.216 21.392 188.006 21.332C187.802 21.272 187.559 21.242 187.277 21.242C186.839 21.242 186.494 21.335 186.242 21.521C185.996 21.707 185.873 21.95 185.873 22.25C185.873 22.448 185.936 22.616 186.062 22.754C186.194 22.886 186.365 23.003 186.575 23.105C186.791 23.207 187.034 23.3 187.304 23.384C187.574 23.462 187.847 23.549 188.123 23.645C188.405 23.741 188.681 23.852 188.951 23.978C189.221 24.098 189.461 24.254 189.671 24.446C189.887 24.632 190.058 24.857 190.184 25.121C190.316 25.385 190.382 25.703 190.382 26.075C190.382 26.519 190.301 26.93 190.139 27.308C189.983 27.68 189.749 28.004 189.437 28.28C189.125 28.55 188.738 28.763 188.276 28.919C187.82 29.069 187.292 29.144 186.692 29.144C186.374 29.144 186.062 29.114 185.756 29.054C185.456 29 185.165 28.922 184.883 28.82C184.607 28.718 184.349 28.598 184.109 28.46C183.875 28.322 183.668 28.172 183.488 28.01L184.001 27.164C184.067 27.062 184.145 26.984 184.235 26.93C184.325 26.876 184.439 26.849 184.577 26.849C184.715 26.849 184.844 26.888 184.964 26.966C185.09 27.044 185.234 27.128 185.396 27.218C185.558 27.308 185.747 27.392 185.963 27.47C186.185 27.548 186.464 27.587 186.8 27.587C187.064 27.587 187.289 27.557 187.475 27.497C187.667 27.431 187.823 27.347 187.943 27.245C188.069 27.143 188.159 27.026 188.213 26.894C188.273 26.756 188.303 26.615 188.303 26.471C188.303 26.255 188.237 26.078 188.105 25.94C187.979 25.802 187.808 25.682 187.592 25.58C187.382 25.478 187.139 25.388 186.863 25.31C186.593 25.226 186.314 25.136 186.026 25.04C185.744 24.944 185.465 24.833 185.189 24.707C184.919 24.575 184.676 24.41 184.46 24.212C184.25 24.014 184.079 23.771 183.947 23.483C183.821 23.195 183.758 22.847 183.758 22.439C183.758 22.061 183.833 21.701 183.983 21.359C184.133 21.017 184.352 20.72 184.64 20.468C184.934 20.21 185.297 20.006 185.729 19.856C186.167 19.7 186.671 19.622 187.241 19.622C187.877 19.622 188.456 19.727 188.978 19.937C189.5 20.147 189.935 20.423 190.283 20.765L189.779 21.566Z" fill="white"/>
<path d="M94.8198 11.7653L92.1346 17.4537L86.1267 18.3688C85.0494 18.532 84.6176 19.9198 85.3989 20.7146L89.7454 25.1398L88.7174 31.391C88.5323 32.5209 89.6714 33.3673 90.6254 32.8389L96 29.8873L101.375 32.8389C102.329 33.363 103.468 32.5209 103.283 31.391L102.255 25.1398L106.601 20.7146C107.382 19.9198 106.951 18.532 105.873 18.3688L99.8654 17.4537L97.1802 11.7653C96.6991 10.7514 95.305 10.7385 94.8198 11.7653Z" fill="white"/>
</svg>
